<svg xmlns="http://www.w3.org/2000/svg" version="1.1" xmlns:xlink="http://www.w3.org/1999/xlink" xmlns:svgjs="http://svgjs.com/svgjs" width="1000" height="1000"><rect width="1000" height="1000" rx="200" ry="200" fill="#555555"></rect><g transform="matrix(33.333333333333336,0,0,33.333333333333336,100,100)"><svg xmlns="http://www.w3.org/2000/svg" version="1.1" xmlns:xlink="http://www.w3.org/1999/xlink" xmlns:svgjs="http://svgjs.com/svgjs" width="24" height="24"><svg width="24" height="24" viewBox="0 0 24 24" fill="none" xmlns="http://www.w3.org/2000/svg">
<path d="M19.82 2H4.18C2.97602 2 2 2.97602 2 4.18V19.82C2 21.024 2.97602 22 4.18 22H19.82C21.024 22 22 21.024 22 19.82V4.18C22 2.97602 21.024 2 19.82 2Z" stroke="white" stroke-width="2" stroke-linecap="round" stroke-linejoin="round"></path>
<path d="M7 2V22" stroke="white" stroke-width="2" stroke-linecap="round" stroke-linejoin="round"></path>
<path d="M17 2V22" stroke="white" stroke-width="2" stroke-linecap="round" stroke-linejoin="round"></path>
<path d="M2 12H22" stroke="white" stroke-width="2" stroke-linecap="round" stroke-linejoin="round"></path>
<path d="M2 7H7" stroke="white" stroke-width="2" stroke-linecap="round" stroke-linejoin="round"></path>
<path d="M2 17H7" stroke="white" stroke-width="2" stroke-linecap="round" stroke-linejoin="round"></path>
<path d="M17 17H22" stroke="white" stroke-width="2" stroke-linecap="round" stroke-linejoin="round"></path>
<path d="M17 7H22" stroke="white" stroke-width="2" stroke-linecap="round" stroke-linejoin="round"></path>
</svg></svg></g></svg>