<svg xmlns="http://www.w3.org/2000/svg" aria-hidden="true" style="position:absolute;width:0;height:0;overflow:hidden"><defs><symbol id="icon-arrow-left" viewBox="0 0 32 32"><path stroke-linecap="round" stroke-linejoin="round" stroke-width="2.667" d="M25.333 16H6.666M16 25.333 6.667 16 16 6.667"/></symbol><symbol id="icon-arrow-right" viewBox="0 0 32 32"><path stroke-linecap="round" stroke-linejoin="round" stroke-width="2.667" d="M6.667 16h18.667M16 25.333 25.333 16 16 6.667"/></symbol><symbol id="icon-film" viewBox="0 0 32 32"><path fill="none" stroke="#fff" stroke-linecap="round" stroke-linejoin="round" stroke-width="2.667" d="M26.427 2.667H5.574a2.907 2.907 0 0 0-2.907 2.907v20.853a2.907 2.907 0 0 0 2.907 2.907h20.853a2.907 2.907 0 0 0 2.907-2.907V5.574a2.907 2.907 0 0 0-2.907-2.907zM9.333 2.667v26.667M22.667 2.667v26.667M2.667 16h26.667M2.667 9.333h6.667M2.667 22.667h6.667M22.667 22.667h6.667M22.667 9.333h6.667" style="stroke:var(--color1, #fff)"/></symbol><symbol id="icon-close" viewBox="0 0 32 32"><path stroke-width="2.133" d="M32 3.223l-3.223-3.223-12.777 12.777-12.777-12.777-3.223 3.223 12.777 12.777-12.777 12.777 3.223 3.223 12.777-12.777 12.777 12.777 3.223-3.223-12.777-12.777 12.777-12.777z"/></symbol>
<symbol id="icon-heart" viewBox="0 0 34 32">
<path fill="#ff6b08" style="fill: var(--color1, #ff6b08)" d="M17.231 31.705l-2.412-2.412c-8.96-7.926-14.818-13.268-14.818-19.815 0-5.342 4.135-9.477 9.477-9.477 2.929 0 5.858 1.378 7.754 3.618 1.895-2.24 4.825-3.618 7.754-3.618 5.342 0 9.477 4.135 9.477 9.477 0 6.548-5.858 11.889-14.818 19.815l-2.412 2.412z"></path>
</symbol>
<symbol id="icon-linkedin2" viewBox="0 0 32 32">
<path d="M12 12h5.535v2.837h0.079c0.77-1.381 2.655-2.837 5.464-2.837 5.842 0 6.922 3.637 6.922 8.367v9.633h-5.769v-8.54c0-2.037-0.042-4.657-3.001-4.657-3.005 0-3.463 2.218-3.463 4.509v8.688h-5.767v-18z"></path>
<path d="M2 12h6v18h-6v-18z"></path>
<path d="M8 7c0 1.657-1.343 3-3 3s-3-1.343-3-3c0-1.657 1.343-3 3-3s3 1.343 3 3z"></path>
</symbol>

<symbol id="icon-close-black" viewBox="0 0 32 32">
<path d="M26.667 7.303l-1.97-1.97-7.808 7.808-7.808-7.808-1.97 1.97 7.808 7.808-7.808 7.808 1.97 1.97 7.808-7.808 7.808 7.808 1.97-1.97-7.808-7.808 7.808-7.808z"></path>
</symbol>

<symbol id="icon-github" viewBox="0 0 32 32">
<path d="M16 0.395c-8.836 0-16 7.163-16 16 0 7.069 4.585 13.067 10.942 15.182 0.8 0.148 1.094-0.347 1.094-0.77 0-0.381-0.015-1.642-0.022-2.979-4.452 0.968-5.391-1.888-5.391-1.888-0.728-1.849-1.776-2.341-1.776-2.341-1.452-0.993 0.11-0.973 0.11-0.973 1.606 0.113 2.452 1.649 2.452 1.649 1.427 2.446 3.743 1.739 4.656 1.33 0.143-1.034 0.558-1.74 1.016-2.14-3.554-0.404-7.29-1.777-7.29-7.907 0-1.747 0.625-3.174 1.649-4.295-0.166-0.403-0.714-2.030 0.155-4.234 0 0 1.344-0.43 4.401 1.64 1.276-0.355 2.645-0.532 4.005-0.539 1.359 0.006 2.729 0.184 4.008 0.539 3.054-2.070 4.395-1.64 4.395-1.64 0.871 2.204 0.323 3.831 0.157 4.234 1.026 1.12 1.647 2.548 1.647 4.295 0 6.145-3.743 7.498-7.306 7.895 0.574 0.497 1.085 1.47 1.085 2.963 0 2.141-0.019 3.864-0.019 4.391 0 0.426 0.288 0.925 1.099 0.768 6.354-2.118 10.933-8.113 10.933-15.18 0-8.837-7.164-16-16-16z"></path>
</symbol>

<symbol id="icon-youtube" viewBox="0 0 32 32">
<path fill="#f61c0d" style="fill: var(--color1, #f61c0d)" d="M25.354 4.678h-18.708c-3.67 0-6.646 2.976-6.646 6.646v9.352c0 3.67 2.975 6.646 6.646 6.646h18.708c3.67 0 6.646-2.976 6.646-6.646v-9.352c0-3.67-2.976-6.646-6.646-6.646zM20.859 16.455l-8.75 4.173c-0.233 0.111-0.502-0.059-0.502-0.317v-8.608c0-0.262 0.276-0.432 0.51-0.313l8.75 4.434c0.26 0.132 0.256 0.505-0.008 0.63z"></path>
</symbol>

<symbol id="icon-sign-in" viewBox="0 0 24 28">
<path d="M18.5 14c0 0.266-0.109 0.516-0.297 0.703l-8.5 8.5c-0.187 0.187-0.438 0.297-0.703 0.297-0.547 0-1-0.453-1-1v-4.5h-7c-0.547 0-1-0.453-1-1v-6c0-0.547 0.453-1 1-1h7v-4.5c0-0.547 0.453-1 1-1 0.266 0 0.516 0.109 0.703 0.297l8.5 8.5c0.187 0.187 0.297 0.438 0.297 0.703zM24 8.5v11c0 2.484-2.016 4.5-4.5 4.5h-5c-0.266 0-0.5-0.234-0.5-0.5 0-0.438-0.203-1.5 0.5-1.5h5c1.375 0 2.5-1.125 2.5-2.5v-11c0-1.375-1.125-2.5-2.5-2.5h-4.5c-0.391 0-1 0.078-1-0.5 0-0.438-0.203-1.5 0.5-1.5h5c2.484 0 4.5 2.016 4.5 4.5z"></path>
</symbol>

<symbol id="icon-sign-out" viewBox="0 0 25 28">
<path d="M10 22.5c0 0.438 0.203 1.5-0.5 1.5h-5c-2.484 0-4.5-2.016-4.5-4.5v-11c0-2.484 2.016-4.5 4.5-4.5h5c0.266 0 0.5 0.234 0.5 0.5 0 0.438 0.203 1.5-0.5 1.5h-5c-1.375 0-2.5 1.125-2.5 2.5v11c0 1.375 1.125 2.5 2.5 2.5h4.5c0.391 0 1-0.078 1 0.5zM24.5 14c0 0.266-0.109 0.516-0.297 0.703l-8.5 8.5c-0.187 0.187-0.438 0.297-0.703 0.297-0.547 0-1-0.453-1-1v-4.5h-7c-0.547 0-1-0.453-1-1v-6c0-0.547 0.453-1 1-1h7v-4.5c0-0.547 0.453-1 1-1 0.266 0 0.516 0.109 0.703 0.297l8.5 8.5c0.187 0.187 0.297 0.438 0.297 0.703z"></path>
</symbol>
</defs></svg>